<?xml version="1.0" encoding="UTF-8"?>
<svg enable-background="new 0 0 1500 1500" version="1.1" viewBox="0 0 1500 1500" xml:space="preserve" xmlns="http://www.w3.org/2000/svg" xmlns:xlink="http://www.w3.org/1999/xlink">
<style type="text/css">
	.st0{fill:#FFFFFF;}
	.st1{fill:#333333;}
	.st2{clip-path:url(#a);}
	.st3{fill:#343434;}
	.st4{fill:#353535;}
	.st5{fill:#363636;}
	.st6{fill:#373737;}
	.st7{fill:#383838;}
	.st8{fill:#393939;}
	.st9{fill:#3A3A3A;}
	.st10{fill:#3B3B3B;}
	.st11{fill:#3C3C3C;}
	.st12{fill:#3D3D3D;}
	.st13{fill:#3E3E3E;}
	.st14{fill:#3F3F3F;}
	.st15{fill:#404040;}
	.st16{fill:#414141;}
	.st17{fill:#424242;}
	.st18{fill:#434343;}
	.st19{fill:#444444;}
	.st20{fill:#454545;}
	.st21{fill:#464646;}
	.st22{fill:#474747;}
	.st23{fill:#484848;}
	.st24{fill:#494949;}
	.st25{fill:#4A4A4A;}
	.st26{fill:#4B4B4B;}
	.st27{fill:#4D4D4D;}
	.st28{fill:#4E4E4E;}
	.st29{fill:#4F4F4F;}
	.st30{fill:#505050;}
	.st31{fill:#515151;}
	.st32{fill:#525252;}
	.st33{fill:#535353;}
	.st34{fill:#545454;}
	.st35{fill:#555555;}
	.st36{fill:#565656;}
	.st37{fill:#575757;}
	.st38{fill:#585858;}
	.st39{fill:#595959;}
	.st40{fill:#5A5A5A;}
	.st41{fill:#5B5B5B;}
	.st42{fill:#5C5C5C;}
	.st43{fill:#5D5D5D;}
	.st44{fill:#5E5E5E;}
	.st45{fill:#5F5F5F;}
	.st46{fill:#606060;}
	.st47{fill:#616161;}
	.st48{fill:#626262;}
	.st49{fill:#636363;}
	.st50{fill:#646464;}
	.st51{fill:#656565;}
	.st52{fill:#666666;}
	.st53{fill:#808080;}
	.st54{fill:#29B6F6;}
	.st55{fill:#0277BD;}
	.st56{fill:#03A9F4;}
</style>
<title>Shariff-Wrapper-2018-neu</title>
	<path class="st0" d="m1075.8 1322c-39 0-70.6-31.7-70.7-70.7 0-4.3 0.4-8.6 1.2-12.8l-119-62.6-67 51.2c-19.2 14.9-42.7 23.4-67 24.1h-3.2c-25.4-0.2-50.1-8.7-70.2-24.2l-67-51.2-119 62.6c0.8 4.2 1.2 8.5 1.2 12.8 0 39-31.7 70.7-70.7 70.7s-70.7-31.7-70.7-70.7c0-35.4 26.2-65.4 61.4-70.1l9.4-54.7h-79.6v-206.1l46-30c-7.7-26.5-13-53.7-15.9-81.1l-118.4-115.4c-34.3 18.6-77.2 5.9-95.9-28.4s-5.9-77.2 28.4-95.9c26-14.1 57.9-10.5 80.2 8.9 7.2 6.3 13.1 14.1 17.3 22.8l44.5-6.5v-56.3h-132.1l76.9-108-76.9-107.9h173.3v-4.8l137.6-17.1c59.6-7.4 120.3-12.1 180.5-13.9l-0.1-0.2c-20.9-33-11.1-76.6 21.9-97.5s76.6-11.1 97.5 21.9c14.6 23.1 14.6 52.5 0 75.6l-0.1 0.2c60.3 1.9 121 6.5 180.5 13.9l137.6 17.1v65.1h68.1v206.3l-11.9 7.8 29.5 4.3c16.8-35.2 59-50.1 94.3-33.3s50.1 59 33.3 94.3c-11.7 24.6-36.5 40.2-63.8 40.2-11.8 0-23.4-2.9-33.7-8.5l-118.3 115.3c-3.7 34.5-11.1 68.6-22.3 101.5h48.8v60h132.5l-76.9 108 76.9 108h-180.1c35.8 15.6 52.1 57.3 36.4 93.1-11.2 25.7-36.6 42.3-64.7 42.2z"/>
	<path class="st1" d="m750 183c36.3 0 65.7 29.4 65.7 65.6 0 15.7-5.6 30.9-15.8 42.8 63.3 1.6 127 6.4 189.7 14.1l119.2 14.8 14 1.7v65.7h68.1v198.6l-7.3 4.7-13.5 8.8 46.3 6.7c13.8-33.5 52.2-49.5 85.7-35.6s49.5 52.2 35.6 85.7c-13.8 33.5-52.2 49.5-85.7 35.6-3.2-1.3-6.4-2.9-9.4-4.8l-122.3 119.3c-3.8 37.1-12 73.7-24.5 108.8h50.9v60h127.8l-18 25.3-55.3 77.7 55.3 77.7 18 25.3h-194.4l0.7 4.2c36.2 2.8 63.2 34.3 60.5 70.5-2.8 36.2-34.3 63.2-70.5 60.5s-63.2-34.3-60.5-70.5c0.3-3.5 0.8-7 1.7-10.5l-125.3-65.7-69.6 53.2c-18.4 14.3-40.8 22.4-64.1 23.1h-3.1c-24.3-0.2-47.9-8.3-67.2-23.2l-69.5-53.1-125.2 65.8c8.6 35.3-13.1 70.8-48.3 79.3s-70.8-13.1-79.3-48.3c-8.6-35.3 13.1-70.8 48.3-79.3 3.4-0.8 7-1.4 10.5-1.7l11-64.2h-80.4v-198.6l7.3-4.7 39.6-25.8c-8.3-27.9-14-56.6-16.9-85.6l-122.4-119.3c-30.9 19-71.4 9.4-90.4-21.5s-9.4-71.4 21.5-90.4 71.4-9.4 90.4 21.5c1.9 3 3.5 6.2 4.8 9.4l50.3-7.3 2.3-0.7v-65.2h-127.6l18-25.3 55.3-77.7-55.3-77.7-18-25.3h168.6v-5.4l14-1.7 119.2-14.8c62.7-7.8 126.4-12.5 189.7-14.1-23.6-27.5-20.5-69 7.1-92.6 11.8-10.2 27-15.8 42.7-15.8m0-10c-41.8 0-75.7 33.9-75.7 75.7 0 11.5 2.6 22.9 7.7 33.3-57.7 2-115.7 6.6-172.8 13.7l-119.1 14.8-14 1.7-8.8 1.1v4.2h-178l11.3 15.8 18 25.3 51.2 71.9-51.2 71.9-18 25.3-11.3 15.8h136.9v47l-36.7 5.3c-19.9-36.7-65.8-50.4-102.5-30.5s-50.4 65.8-30.5 102.5c19.2 35.5 62.8 49.6 99.2 32.2l114.5 111.5c2.8 25.9 7.8 51.5 14.9 76.6l-33.4 21.8-7.3 4.7-4.5 3v214h78.6l-7.8 45.3c-41.1 7.5-68.4 46.9-60.8 88.1 7.5 41.1 46.9 68.4 88.1 60.8 39.7-7.3 66.8-44.5 61.4-84.5l113-59.4 64.5 49.2c21 16.2 46.8 25 73.3 25.2h3.3c25.4-0.8 49.8-9.6 69.9-25.2l64.5-49.3 113 59.4c-5.6 41.4 23.5 79.5 64.9 85.1s79.5-23.5 85.1-64.9c3-22.5-4.2-45.1-19.6-61.7-2.8-3-5.7-5.7-8.9-8.2h171.7l-11.3-15.8-18-25.3-51.2-71.9 51.2-71.9 18-25.3 11.3-15.8h-137.2v-60h-46.9c9.9-30.6 16.6-62.2 20.1-94.2l114.5-111.6c37.7 18.1 82.9 2.3 101.1-35.4s2.3-82.9-35.4-101.1c-36.5-17.5-80.3-3.3-99.5 32.3l-12.8-1.9 3.1-2v-214h-68.1v-64.6l-8.8-1.1-14-1.7-119.2-14.8c-57-7.1-115-11.7-172.7-13.7 18.4-37.5 2.9-82.9-34.7-101.3-10.7-4.8-22.1-7.4-33.6-7.4z"/>
	<path class="st1" d="m379.9 1087.2c-4.2 0-7.6-3.4-7.6-7.6v-144.4l784.3-511.7c1.2-0.8 2.7-1.3 4.1-1.3 4.2 0 7.6 3.4 7.6 7.6v144.4l-784.3 511.7c-1.2 0.8-2.7 1.3-4.1 1.3z"/>
	<path class="st1" d="m1160.7 428.7s1.1 0.1 1.1 1.1v140.9l-781.3 509.8c-0.2 0.1-0.4 0.2-0.6 0.2-0.6 0-1.1-0.5-1.1-1.1v-140.9l781.3-509.8c0.2-0.1 0.4-0.2 0.6-0.2m0-13c-2.7 0-5.4 0.8-7.7 2.3l-787.2 513.7v147.9c0 7.8 6.3 14.1 14.1 14.1 2.7 0 5.4-0.8 7.7-2.3l787.2-513.6v-147.9c0-7.8-6.3-14.2-14.1-14.2z"/>
		<defs>
			<path id="b" d="m930.2 1116.6l-122.8 93.8c-15.8 12.2-34.9 19.1-54.8 19.8h-2.6c-20.8-0.2-41-7.1-57.5-19.9l-122.8-93.8c-111.2-85-176.4-216.9-176.4-356.8v-423.4l119.2-14.8c157.7-19.6 317.3-19.6 475.1 0l119.2 14.8v423.5c-0.1 139.9-65.4 271.9-176.6 356.8z"/>
		</defs>
		<clipPath id="a">
			<use xlink:href="#b"/>
		</clipPath>
		<g class="st2">
			<rect class="st1" x="393.3" y="301.9" width="713.4" height="928.4"/>
			<path class="st1" d="m1107.7 768.6v196.7h5.1c-6.3 11.7-13.2 23-20.7 34-127.5 188.9-384.1 238.6-573.1 111.1-43.8-29.6-81.6-67.3-111.2-111.2-7.4-11-14.3-22.3-20.7-34h5.1v-393.3h-5.1c6.3-11.7 13.2-23 20.7-34 127.6-188.9 384.2-238.7 573.2-111.2 43.8 29.6 81.6 67.3 111.2 111.2 7.4 11 14.3 22.3 20.7 34h-5.1v196.7z"/>
			<path class="st3" d="m1107.7 768.6v175.4h6.9c-2.8 5.9-5.8 11.7-8.9 17.4-6.2 11.5-13 22.6-20.3 33.3-125.1 185.2-376.6 234-561.8 109-43-29-80-66-109-109-7.3-10.8-14-21.9-20.3-33.3-3.1-5.7-6.1-11.6-8.9-17.4h6.9v-350.8h-6.9c2.8-5.9 5.8-11.7 8.9-17.5 6.2-11.5 13-22.6 20.3-33.3 125-185.2 376.5-234 561.8-109 43 29 80 66 109 109 7.3 10.8 14 21.9 20.3 33.3 3.1 5.7 6.1 11.6 8.9 17.5h-6.9v175.4z"/>
			<path class="st4" d="m1107.7 768.6v163.1h3.7c-1.3 2.9-2.7 5.8-4.1 8.7-2.8 5.8-5.7 11.5-8.8 17.1-6.1 11.2-12.7 22.1-19.8 32.7-122.6 181.5-369.1 229.3-550.6 106.8-42.1-28.4-78.4-64.7-106.8-106.8-7.1-10.5-13.7-21.4-19.9-32.7-3-5.6-6-11.3-8.8-17.1-1.4-2.9-2.8-5.8-4.1-8.7h3.7v-326.3h-3.7c1.3-2.9 2.7-5.8 4.1-8.7 2.8-5.8 5.7-11.5 8.8-17.1 6.1-11.2 12.7-22.1 19.9-32.7 122.6-181.5 369.1-229.3 550.6-106.8 42.1 28.4 78.4 64.7 106.8 106.8 7.1 10.5 13.7 21.4 19.8 32.7 3.1 5.6 6 11.3 8.8 17.1 1.4 2.9 2.8 5.8 4.1 8.7h-3.7v163.2z"/>
			<path class="st5" d="m1107.7 768.6v151.1h0.1c-83.7 197.6-311.7 290-509.3 206.3-93-39.4-167-113.4-206.3-206.3h0.1v-302.3h-0.1c83.7-197.6 311.7-290 509.3-206.3 93 39.4 167 113.4 206.3 206.3h-0.1v151.2z"/>
			<path class="st6" d="m1107.7 768.6v113.1h5.4c-3.7 11.9-8 23.5-12.8 34.9-81.9 193.5-305.1 283.9-498.6 202-91-38.5-163.5-111-202-202-4.8-11.4-9.1-23-12.8-34.9h5.4v-226.2h-5.4c3.7-11.9 8-23.5 12.8-34.9 81.9-193.5 305.1-283.9 498.6-202 91 38.5 163.5 111 202 202 4.8 11.4 9.1 23 12.8 34.9h-5.4v113.1z"/>
			<path class="st7" d="m1107.7 768.6v75h6.9c-4.9 23.9-12.2 47.3-21.7 69.8-80.2 189.4-298.6 277.9-488 197.7-89.1-37.7-160-108.6-197.7-197.7-9.5-22.5-16.8-45.9-21.7-69.8h6.9v-150h-6.9c4.9-23.9 12.2-47.3 21.7-69.8 80.2-189.4 298.6-277.9 488-197.7 89.1 37.7 160 108.6 197.7 197.7 9.5 22.5 16.8 45.9 21.7 69.8h-6.9v75z"/>
			<circle class="st8" cx="750" cy="768.6" r="364"/>
			<circle class="st9" cx="750" cy="768.6" r="355.9"/>
			<circle class="st10" cx="750" cy="768.6" r="347.9"/>
			<circle class="st11" cx="750" cy="768.6" r="339.8"/>
			<circle class="st12" cx="750" cy="768.6" r="331.7"/>
			<circle class="st13" cx="750" cy="768.6" r="323.6"/>
			<circle class="st14" cx="750" cy="768.6" r="315.5"/>
			<circle class="st15" cx="750" cy="768.6" r="307.4"/>
			<circle class="st16" cx="750" cy="768.6" r="299.3"/>
			<circle class="st17" cx="750" cy="768.6" r="291.2"/>
			<circle class="st18" cx="750" cy="768.6" r="283.1"/>
			<circle class="st19" cx="750" cy="768.6" r="275.1"/>
			<circle class="st20" cx="750" cy="768.6" r="267"/>
			<circle class="st21" cx="750" cy="768.6" r="258.9"/>
			<circle class="st22" cx="750" cy="768.6" r="250.8"/>
			<circle class="st23" cx="750" cy="768.6" r="242.7"/>
			<circle class="st24" cx="750" cy="768.6" r="234.6"/>
			<circle class="st25" cx="750" cy="768.6" r="226.5"/>
			<circle class="st26" cx="750" cy="768.6" r="218.4"/>
			<circle class="st27" cx="750" cy="768.6" r="210.3"/>
			<circle class="st28" cx="750" cy="768.6" r="202.2"/>
			<circle class="st29" cx="750" cy="768.6" r="194.1"/>
			<circle class="st30" cx="750" cy="768.6" r="186.1"/>
			<circle class="st31" cx="750" cy="768.6" r="178"/>
			<circle class="st32" cx="750" cy="768.6" r="169.9"/>
			<circle class="st33" cx="750" cy="768.6" r="161.8"/>
			<circle class="st34" cx="750" cy="768.6" r="153.7"/>
			<circle class="st35" cx="750" cy="768.6" r="145.6"/>
			<circle class="st36" cx="750" cy="768.6" r="137.5"/>
			<circle class="st37" cx="750" cy="768.6" r="129.4"/>
			<circle class="st38" cx="750" cy="768.6" r="121.3"/>
			<circle class="st39" cx="750" cy="768.6" r="113.3"/>
			<circle class="st40" cx="750" cy="768.6" r="105.2"/>
			<circle class="st41" cx="750" cy="768.6" r="97.1"/>
			<circle class="st42" cx="750" cy="768.6" r="89"/>
			<circle class="st43" cx="750" cy="768.6" r="80.9"/>
			<circle class="st44" cx="750" cy="768.6" r="72.8"/>
			<circle class="st45" cx="750" cy="768.6" r="64.7"/>
			<circle class="st46" cx="750" cy="768.6" r="56.6"/>
			<circle class="st47" cx="750" cy="768.6" r="48.5"/>
			<circle class="st48" cx="750" cy="768.6" r="40.5"/>
			<circle class="st49" cx="750" cy="768.6" r="32.4"/>
			<circle class="st50" cx="750" cy="768.6" r="24.3"/>
			<circle class="st51" cx="750" cy="768.6" r="16.2"/>
			<circle class="st52" cx="750" cy="768.6" r="8.1"/>
		</g>
	<path class="st1" d="m750 1236.8c-22.2-0.2-43.8-7.6-61.4-21.2l-122.8-93.8c-112.8-86.2-179-220-179-362v-429.3l124.9-15.5c158.3-19.6 318.4-19.6 476.7 0l124.9 15.5v429.3c0 142-66.2 275.8-179 362l-122.8 93.8c-16.8 13.1-37.3 20.5-58.6 21.2h-2.9zm-350.2-894.8v417.8c0 137 65 268.5 173.9 351.7l122.8 93.8c16 12.4 35.8 18.9 56 18.5 18.5-0.6 36.4-7.1 51.1-18.5l122.8-93.8c108.9-83.2 173.9-214.7 173.9-351.7v-417.8l-113.5-14.1c-157.2-19.5-316.2-19.5-473.5 0l-113.5 14.1z"/>
	<polygon class="st0" points="415.2 379.1 409.2 379.1 409.2 356.5 431.7 353.7 432.4 359.7 415.2 361.8"/>
	<path class="st0" d="m474.7 354.4l-0.7-6 42.2-5.2 0.7 6-42.2 5.2zm550.6 0l-42.2-5.2 0.7-6 42.2 5.2-0.7 6zm-466.2-10.1l-0.6-6c14-1.5 28.3-2.8 42.5-4l0.5 6c-14.1 1.2-28.4 2.5-42.4 4zm381.8 0c-14-1.5-28.3-2.8-42.3-4l0.5-6c14.1 1.1 28.4 2.5 42.4 4l-0.6 6zm-297-6.9l-0.3-6c14.1-0.8 28.5-1.5 42.6-2l0.2 6c-14.2 0.5-28.5 1.1-42.5 2zm212.3 0c-14.1-0.8-28.3-1.5-42.4-2l0.2-6c14.1 0.5 28.5 1.2 42.6 2l-0.4 6zm-127.4-3l-0.1-6c7.1-0.1 14.3-0.1 21.3-0.1s14.3 0 21.3 0.1l-0.1 6c-14-0.2-28.3-0.2-42.4 0z"/>
	<polygon class="st0" points="1090.8 379.1 1084.8 379.1 1084.8 361.8 1067.6 359.7 1068.3 353.7 1090.8 356.5"/>
	<path class="st0" d="m729.6 1206.5c-13-3.1-25.3-8.9-35.9-17.1l-0.9-0.7 3.7-4.8 0.8 0.7c10 7.6 21.4 13.1 33.6 16l-1.3 5.9zm40.9 0l-1.4-5.8c12.1-2.9 23.5-8.4 33.5-16l1-0.8 3.6 4.8-1 0.8c-10.6 8-22.7 13.8-35.7 17zm-109.3-42l-31.7-24.2 3.6-4.8 31.7 24.2-3.6 4.8zm177.7 0l-3.7-4.8 31.7-24.2 3.6 4.8-31.6 24.2zm-241-48.3l-20.4-15.6c-3.8-2.9-7.6-5.9-11.3-8.9l3.7-4.7c3.6 3 7.4 5.9 11.1 8.8l20.4 15.6-3.5 4.8zm304.4-0.1l-3.6-4.8 20.3-15.5c3.8-2.9 7.5-5.8 11.2-8.8l3.8 4.6c-3.7 3-7.5 6.1-11.3 9l-20.4 15.5zm-365.9-51.3c-9.5-9.4-18.6-19.3-27.2-29.5l4.6-3.8c8.4 10.1 17.5 19.9 26.8 29.1l-4.2 4.2zm427.3 0l-4.2-4.3c9.3-9.2 18.3-19 26.8-29.1l4.6 3.9c-8.6 10.2-17.8 20.1-27.2 29.5zm-478.8-61.4c-7.6-11-14.7-22.4-21.2-34.1l5.2-2.9c6.4 11.5 13.5 22.8 20.9 33.6l-4.9 3.4zm530.2 0l-4.9-3.4c7.5-10.8 14.5-22.1 20.9-33.6l5.2 2.9c-6.5 11.6-13.6 23.1-21.2 34.1zm-569.3-70c-5.4-12.2-10.3-24.8-14.5-37.4l5.7-1.9c4.2 12.5 9 24.9 14.3 36.9l-5.5 2.4zm608.4 0l-5.5-2.4c5.3-12 10.1-24.4 14.3-36.9l5.7 1.9c-4.2 12.6-9.1 25.2-14.5 37.4zm-633.8-76c-3-13-5.5-26.3-7.3-39.5l6-0.8c1.8 13 4.2 26.1 7.2 38.9l-5.9 1.4zm659.2 0l-5.8-1.4c3-12.8 5.4-25.9 7.2-38.9l6 0.8c-1.9 13.2-4.3 26.4-7.4 39.5zm-670-79.4c-0.2-5.9-0.4-11.9-0.4-17.8v-22.2h6v22.2c0 5.8 0.1 11.7 0.4 17.5l-6 0.3zm680.8-0.1l-6-0.3c0.2-5.8 0.4-11.6 0.4-17.4v-22.4h6v22.3c0 6-0.1 11.9-0.4 17.8zm-675.2-79.7h-6v-39.9h6v39.9zm675.6-0.2h-6v-39.9h6v39.9zm-675.6-79.6h-6v-39.9h6v39.9zm675.6-0.1h-6v-39.9h6v39.9zm-675.6-79.6h-6v-39.9h6v39.9zm675.6-0.1h-6v-39.9h6v39.9zm-675.6-79.6h-6v-39.9h6v39.9zm675.6-0.1h-6v-39.9h6v39.9z"/>
	<polygon class="st53" points="393.6 517.4 239.7 517.4 301.7 430.5 239.7 343.5 393.6 343.5"/>
	<path class="st1" d="m400.1 523.9h-173l66.6-93.5-66.6-93.4h173v186.9zm-147.8-13h134.8v-160.9h-134.7l57.3 80.5-57.4 80.4z"/>
	<polygon class="st53" points="1002.5 991.7 1243.4 991.7 1181.5 1078.6 1243.4 1165.6 1002.5 1165.6"/>
	<path class="st1" d="m1256.1 1172.1h-260.1v-186.9h260l-66.6 93.5 66.7 93.4zm-247-13h221.8l-57.3-80.5 57.3-80.5h-221.9l0.1 161z"/>
	<polygon class="st54" points="1277.1 631.7 912.9 578.7 750 248.7 587.1 578.7 222.9 631.7 486.5 888.6 424.2 1251.3 750 1080 1075.8 1251.3 1013.5 888.6"/>
	<polygon class="st55" points="222.9 631.7 587.1 578.7 750 802.9"/>
	<polygon class="st55" points="750 802.9 424.2 1251.3 486.5 888.6"/>
	<polygon class="st55" points="912.9 578.7 750 248.7 750 802.9"/>
	<polygon class="st55" points="1277.1 631.7 750 802.9 1013.5 888.6"/>
	<polygon class="st55" points="750 1080 750 802.9 1075.8 1251.3"/>
	<path class="st1" d="m1084.4 1263.2l-334.4-175.8-334.4 175.8 63.9-372.4-270.6-263.7 373.9-54.3 167.2-338.8 167.2 338.8 373.9 54.3-270.5 263.7 63.8 372.4zm-334.4-190.5l3 1.6 314.1 165.1-60.6-353.1 2.5-2.4 254.1-247.7-354.5-51.5-1.5-3.1-157.1-318.2-158.6 321.3-354.6 51.5 256.6 250.1-60.6 353.1 317.2-166.7z"/>
	<circle class="st54" cx="222.9" cy="631.7" r="49.7"/>
	<path class="st1" d="m222.9 687.8c-31 0-56.2-25.2-56.2-56.2s25.2-56.2 56.2-56.2 56.2 25.2 56.2 56.2c-0.1 31.1-25.2 56.2-56.2 56.2zm0-99.3c-23.8 0-43.2 19.3-43.2 43.2s19.3 43.2 43.2 43.2 43.2-19.3 43.2-43.2c-0.1-23.9-19.4-43.2-43.2-43.2z"/>
	<circle class="st54" cx="1277.1" cy="631.7" r="49.7"/>
	<path class="st1" d="m1277.1 687.8c-31 0-56.2-25.2-56.2-56.2s25.2-56.2 56.2-56.2 56.2 25.2 56.2 56.2c0 31.1-25.2 56.2-56.2 56.2zm0-99.3c-23.8 0-43.2 19.3-43.2 43.2s19.3 43.2 43.2 43.2c23.8 0 43.2-19.3 43.2-43.2s-19.4-43.2-43.2-43.2z"/>
	<circle class="st54" cx="750" cy="248.7" r="49.7"/>
	<path class="st1" d="m750 304.9c-31 0-56.2-25.2-56.2-56.2s25.2-56.2 56.2-56.2 56.2 25.2 56.2 56.2c-0.1 31-25.2 56.1-56.2 56.2zm0-99.4c-23.8 0-43.2 19.3-43.2 43.2s19.3 43.2 43.2 43.2 43.2-19.3 43.2-43.2c0-23.8-19.4-43.2-43.2-43.2z"/>
	<circle class="st54" cx="424.2" cy="1251.3" r="49.7"/>
	<path class="st1" d="m424.2 1307.5c-31 0-56.2-25.2-56.2-56.2s25.2-56.2 56.2-56.2 56.2 25.2 56.2 56.2-25.2 56.2-56.2 56.2zm0-99.4c-23.8 0-43.2 19.3-43.2 43.2s19.3 43.2 43.2 43.2c23.8 0 43.2-19.3 43.2-43.2 0-23.8-19.3-43.1-43.2-43.2z"/>
	<circle class="st54" cx="1075.8" cy="1251.3" r="49.7"/>
	<path class="st1" d="m1075.8 1307.5c-31 0-56.2-25.2-56.2-56.2s25.2-56.2 56.2-56.2 56.2 25.2 56.2 56.2c-0.1 31-25.2 56.2-56.2 56.2zm0-99.4c-23.8 0-43.2 19.3-43.2 43.2s19.3 43.2 43.2 43.2 43.2-19.3 43.2-43.2c-0.1-23.8-19.4-43.1-43.2-43.2z"/>
	<rect class="st0" x="358.7" y="410.3" width="809.6" height="160.9"/>
	<path class="st1" d="m1161.8 416.8v147.9h-796.6v-147.9h796.6m13-13h-822.6v173.9h822.6v-173.9z"/>
	<rect class="st0" x="372.3" y="938.2" width="751.9" height="160.9"/>
	<path class="st1" d="m1117.7 944.7v147.9h-738.9v-147.9h738.9m13-13h-764.9v173.9h764.9v-173.9z"/>
	<path class="st1" d="m477.4 533.8v-26.6c-0.2-2.1 1.4-4 3.5-4.2h0.2c2.9 0 10.9 5.4 13.2 7.1 1.3 0.9 2.5 2.2 2.5 6v13.7h15v-20.2c0-1.9-0.7-3.2-2.6-4.5l-24-16.6c-4.2-2.9-7.9-6-7.9-12.4v-29c0-7.3 6.1-11.2 13.8-11.2h24.3c8.7 0 14.4 6 14.4 11.9v22.5c0 2.6-1.7 4.4-3.2 4.4-3.5 0-11.3-5.5-13.8-7.1-1.3-0.9-2.5-2.2-2.5-6v-9.6h-13.5v17.9c0 2 0.4 3.2 2.8 4.9l24.3 16.7c4.8 3.2 7.4 6.1 7.4 12.4v29.9c0 6-6.8 11.9-13.8 11.9h-25.7c-8.5 0-14.4-5.9-14.4-11.9z"/>
	<path class="st1" d="m622.8 531c0 5.8 6.3 9.2 6.3 12.2 0 1.3-1.2 2.5-3.2 2.5h-25.6c-2 0-3.2-1.2-3.2-2.5 0-3 6.3-6.4 6.3-12.2v-19.3l-23 10.7v8.5c0 5.8 6.3 9.2 6.3 12.2 0 1.3-1.2 2.5-3.2 2.5h-25.5c-2 0-3.2-1.2-3.2-2.5 0-3 6.3-6.4 6.3-12.2v-80.3c0-5.8-6.3-9.2-6.3-12.2 0-1.3 1.2-2.5 3.2-2.5h25.6c2 0 3.2 1.2 3.2 2.5 0 3-6.3 6.4-6.3 12.2v50.9l23-10.8v-40.1c0-5.8-6.3-9.2-6.3-12.2 0-1.3 1.2-2.5 3.2-2.5h25.6c2 0 3.2 1.2 3.2 2.5 0 3-6.3 6.4-6.3 12.2l-0.1 80.4z"/>
	<path class="st1" d="m732.8 543.1c0 1.6-1.2 2.6-3.2 2.6h-23.8c-2.3 0-3.3-1.2-3.3-2.6 0-2.3 3.8-3.9 3.8-7.4 0-1-4.8-20.6-4.8-20.6l-26.3 14.2v3.9c0 5.7 5.2 7.6 5.2 9.9 0 1.5-1 2.6-3.3 2.6h-25.9c-2 0-3.2-1-3.2-2.6 0-2.3 5.7-5.2 7-10.3 1.2-4.5 20.9-82.1 20.9-86.6 0-2.8-3.8-5.8-3.8-7.6s1.2-2.6 3.2-2.6h30.1c2 0 3.2 1 3.2 2.6s-3.8 4.8-3.8 7.6c0 4.5 17.9 75.9 19.5 81.7 2.2 8.8 8.5 12.9 8.5 15.2zm-35.8-45.3l-7-32-9.6 40.8 16.6-8.8z"/>
	<path class="st1" d="m819.4 543.3c0 1.3-1.5 2.5-3 2.5h-25.2c-2 0-3.3-1.2-3.3-2.5 0-2.2 3.3-2.6 3.3-5.8 0-1.6-10.2-27.6-10.2-27.6l-5.4 3.3c-0.4 0.3-0.6 0.7-0.6 1.6v16.2c0 5.8 6.3 9.2 6.3 12.2 0 1.3-1.2 2.5-3.2 2.5h-25.6c-2 0-3.2-1.2-3.2-2.5 0-3 6.3-6.4 6.3-12.2v-80.3c0-5.8-6.3-9.2-6.3-12.2 0-1.3 1.2-2.5 3.2-2.5l44-0.1c9.7 0 15.8 4.4 15.8 14v34.1c0 6.3-6.5 10-13.2 14.2 6 17.2 12.1 32.6 13.1 34.5 4.4 7.6 7.2 7.3 7.2 10.6zm-44.3-91.3v40.9l14.4-9.9c3.2-2.2 3.5-3.3 3.5-4.4v-24.7c0-1.3-0.6-1.9-2-1.9h-15.9z"/>
	<path class="st1" d="m864 531c0 5.8 6.3 9.2 6.3 12.2 0 1.3-1.2 2.5-3.2 2.5h-25.6c-2 0-3.2-1.2-3.2-2.5 0-3 6.3-6.4 6.3-12.2v-80.3c0-5.8-6.3-9.2-6.3-12.2 0-1.3 1.2-2.5 3.2-2.5h25.6c2 0 3.2 1.2 3.2 2.5 0 3-6.3 6.4-6.3 12.2v80.3z"/>
	<path class="st1" d="m928.4 452h-12.1v34.6l12.9-8.1c1.1-0.8 2.4-1.3 3.8-1.5 1.6 0 2.8 1.3 2.8 2.9v0.1 13.3c0 2.5-0.6 3.6-2.8 4.9l-16.7 10.8v22c0 5.8 6.3 9.2 6.3 12.2 0 1.3-1.2 2.5-3.2 2.5h-25.6c-2 0-3.2-1.2-3.2-2.5 0-3 6.3-6.4 6.3-12.2v-80.3c0-5.8-6.3-9.2-6.3-12.2 0-1.3 1.2-2.5 3.2-2.5h49.1c3.5 0 4.9 1.5 4.9 4.9v15.1c0 2.2-0.4 2.9-1.6 3.8-2.3 1.8-13.7 9.5-15.4 9.5-1.4-0.1-2.5-1.3-2.5-2.8v-14.5z"/>
	<path class="st1" d="m1006 452h-12.1v34.6l12.9-8.1c1.1-0.8 2.4-1.3 3.8-1.5 1.6 0 2.8 1.3 2.8 2.9v0.2 13.3c0 2.5-0.6 3.6-2.8 4.9l-16.7 10.7v22c0 5.8 6.3 9.2 6.3 12.2 0 1.3-1.2 2.5-3.2 2.5h-25.6c-2 0-3.2-1.2-3.2-2.5 0-3 6.2-6.4 6.2-12.2v-80.3c0-5.8-6.2-9.2-6.2-12.2 0-1.3 1.2-2.5 3.2-2.5h49.1c3.5 0 4.9 1.5 4.9 4.9v15.1c0 2.2-0.4 2.9-1.6 3.8-2.3 1.8-13.7 9.5-15.4 9.5-1.4-0.1-2.5-1.3-2.5-2.8l0.1-14.5z"/>
	<path class="st1" d="m511.2 1027.1s10.3-49.3 10.3-51.9c0-4.1-4.7-7.7-4.7-10.8 0-1.3 1.2-2.5 3.2-2.5h25.6c2 0 3.2 1.2 3.2 2.5 0 3-5.8 7.1-7 12.3l-17.9 82c-0.6 2.8 4.1 7.7 4.1 10.5 0 1.3-1.2 2.5-3.2 2.5h-23.8c-2 0-3.2-1.2-3.2-2.5 0-2.8 3.9-7.7 3.9-10.5l-13.5-49.7-13.5 49.7c0 2.8 3.9 7.7 3.9 10.5 0 1.3-1.2 2.5-3.2 2.5h-23.8c-2 0-3.2-1.2-3.2-2.5 0-2.8 3.9-7.7 4.1-10.5l-17.9-82c-1.2-5.2-7-9.3-7-12.3 0-1.3 1.2-2.5 3.2-2.5h25.6c2 0 3.2 1.2 3.2 2.5 0 3-4.6 6.7-4.6 10.8 0 2.6 10.3 51.9 10.3 51.9l12.5-52.2c0.6-2.6-3.9-7.7-3.9-10.5 0-1.3 1.2-2.5 3.2-2.5h22.4c2 0 3.2 1.2 3.2 2.5 0 2.8-4.6 7.8-4.1 10.5l12.6 52.2z"/>
	<path class="st1" d="m637.8 1069.3c0 1.3-1.5 2.5-3 2.5h-25.2c-2 0-3.3-1.2-3.3-2.5 0-2.2 3.3-2.6 3.3-5.8 0-1.6-10.2-27.6-10.2-27.6l-5.4 3.3c-0.4 0.3-0.6 0.7-0.6 1.6v16.2c0 5.8 6.3 9.2 6.3 12.2 0 1.3-1.2 2.5-3.2 2.5h-25.5c-2 0-3.2-1.2-3.2-2.5 0-3 6.2-6.4 6.2-12.2v-80.3c0-5.8-6.2-9.2-6.2-12.2 0-1.3 1.2-2.5 3.2-2.5l44-0.2c9.7 0 15.8 4.4 15.8 14v34.2c0 6.3-6.5 10-13.2 14.2 6 17.2 12.1 32.6 13.1 34.4 4.3 7.7 7.1 7.5 7.1 10.7zm-44.3-91.3v40.8l14.4-9.9c3.2-2.2 3.5-3.3 3.5-4.4v-24.7c0-1.3-0.6-1.9-2-1.9l-15.9 0.1z"/>
	<path class="st1" d="m740.1 1069.1c0 1.6-1.2 2.6-3.2 2.6h-23.8c-2.3 0-3.3-1.2-3.3-2.6 0-2.3 3.8-3.9 3.8-7.4 0-1-4.8-20.6-4.8-20.6l-26.3 14.2v3.9c0 5.7 5.2 7.6 5.2 9.9 0 1.5-1 2.6-3.3 2.6h-25.9c-2 0-3.2-1-3.2-2.6 0-2.3 5.7-5.2 7-10.3 1.2-4.5 20.9-82.1 20.9-86.6 0-2.8-3.8-5.8-3.8-7.6s1.2-2.6 3.2-2.6h30.1c2 0 3.2 1 3.2 2.6s-3.8 4.8-3.8 7.6c0 4.5 17.9 75.9 19.5 81.7 2.3 8.8 8.5 12.9 8.5 15.2zm-35.7-45.3l-7-32-9.6 40.8 16.6-8.8z"/>
	<path class="st1" d="m762.2 1071.7c-2 0-3.2-1.2-3.2-2.5 0-3 6.3-6.4 6.3-12.2v-80.4c0-5.8-6.3-9.2-6.3-12.2 0-1.3 1.2-2.5 3.2-2.5h41.1c10.8 0 15.8 4.7 15.8 13.5v37.1c0 3.3-2 6.7-6.1 9.6l-26.9 19c-0.9 0.5-1.5 1.4-1.5 2.5v13.4c0 5.8 6.3 9.2 6.3 12.2 0 1.3-1.2 2.5-3.2 2.5h-25.5zm22.5-93.7v41.6l12.6-8.9c2-1.5 2.3-2.5 2.3-3.5v-27.2c0-1.9-0.2-2-2-2h-12.9z"/>
	<path class="st1" d="m842.7 1071.7c-2 0-3.2-1.2-3.2-2.5 0-3 6.2-6.4 6.2-12.2v-80.4c0-5.8-6.2-9.2-6.2-12.2 0-1.3 1.2-2.5 3.2-2.5h41.1c10.8 0 15.8 4.7 15.8 13.5v37.1c0 3.3-2 6.7-6.1 9.6l-26.9 19c-0.9 0.5-1.5 1.4-1.5 2.5v13.4c0 5.8 6.3 9.2 6.3 12.2 0 1.3-1.2 2.5-3.2 2.5h-25.5zm22.6-93.7v41.6l12.6-8.9c2-1.5 2.3-2.5 2.3-3.5v-27.2c0-1.9-0.1-2-2-2h-12.9z"/>
	<path class="st1" d="m923.2 1071.7c-2 0-3.2-1.2-3.2-2.5 0-3 6.3-6.4 6.3-12.2v-80.4c0-5.8-6.3-9.2-6.3-12.2 0-1.3 1.2-2.5 3.2-2.5h50.9c3.5 0 4.9 1.5 4.9 4.9v16.6c0 2.2-0.4 2.9-1.6 3.8-2.3 1.7-13.7 9.4-15.4 9.4-1.4-0.1-2.5-1.3-2.5-2.8v-16h-11.9c-1 0-1.8 0.8-1.9 1.8v35.6l12.9-8.1c1.1-0.8 2.4-1.3 3.8-1.5 1.6 0 2.8 1.3 2.8 2.9v0.1 13.4c0 2.5-0.6 3.6-2.8 4.9l-16.7 10.6v16.3c0 1 0.9 1.8 1.9 1.7h11.9v-9.2c0-2.2 0.4-2.9 1.6-3.8 2.3-1.8 13.7-9.4 15.4-9.4 1.4 0.1 2.5 1.3 2.5 2.8v30.7c0 3.5-1.5 4.9-4.9 4.9l-50.9 0.2z"/>
	<path class="st1" d="m1072.3 1069.3c0 1.3-1.4 2.5-3 2.5h-25.2c-2 0-3.3-1.2-3.3-2.5 0-2.2 3.3-2.6 3.3-5.8 0-1.6-10.2-27.6-10.2-27.6l-5.4 3.3c-0.4 0.3-0.6 0.7-0.6 1.6v16.2c0 5.8 6.3 9.2 6.3 12.2 0 1.3-1.2 2.5-3.2 2.5h-25.6c-2 0-3.2-1.2-3.2-2.5 0-3 6.2-6.4 6.2-12.2v-80.3c0-5.8-6.2-9.2-6.2-12.2 0-1.3 1.2-2.5 3.2-2.5l44-0.2c9.7 0 15.8 4.4 15.8 14v34.2c0 6.3-6.5 10-13.2 14.2 6 17.2 12.1 32.6 13.1 34.4 4.5 7.7 7.2 7.5 7.2 10.7zm-44.3-91.3v40.8l14.4-9.9c3.2-2.2 3.5-3.3 3.5-4.4v-24.7c0-1.3-0.6-1.9-2-1.9l-15.9 0.1z"/>
	<circle class="st0" cx="750" cy="757" r="130"/>
	<path class="st1" d="m750 892c-74.4 0-135-60.6-135-135s60.6-135 135-135 135 60.6 135 135-60.6 135-135 135zm0-260c-69 0-125 56-125 125s56 125 125 125 125-56 125-125c-0.1-69-56-124.9-125-125z"/>
	<path class="st1" d="m691.5 762c-2.8 0-5-2.3-5-5 0-2 1.2-3.7 3-4.5l88.9-39.3c2.6-0.9 5.5 0.4 6.4 3 0.8 2.4-0.2 5-2.4 6.1l-88.9 39.3c-0.6 0.2-1.3 0.4-2 0.4z"/>
	<path class="st1" d="m780.5 801.3c-0.7 0-1.4-0.2-2-0.4l-88.9-39.3c-2.6-0.9-3.9-3.8-3-6.4s3.8-3.9 6.4-3l0.6 0.3 88.9 39.3c2.5 1.1 3.7 4.1 2.5 6.6-0.8 1.7-2.6 2.9-4.5 2.9z"/>
	<circle class="st56" cx="780.5" cy="717.7" r="22"/>
	<path class="st1" d="m780.5 744.8c-14.9 0-27-12.1-27-27s12.1-27 27-27 27 12.1 27 27c-0.1 14.9-12.1 26.9-27 27zm0-44.1c-9.4 0-17 7.6-17 17s7.6 17 17 17 17-7.6 17-17c-0.1-9.4-7.7-17-17-17z"/>
	<circle class="st56" cx="691.5" cy="757" r="22"/>
	<path class="st1" d="m691.5 784c-14.9 0-27-12.1-27-27s12.1-27 27-27 27 12.1 27 27-12.1 27-27 27zm0-44.1c-9.4 0-17 7.6-17 17s7.6 17 17 17 17-7.6 17-17c0-9.3-7.6-16.9-17-17z"/>
	<circle class="st56" cx="780.5" cy="796.3" r="22"/>
	<path class="st1" d="m780.5 823.3c-14.9 0-27-12.1-27-27s12.1-27 27-27 27 12.1 27 27c-0.1 14.9-12.1 27-27 27zm0-44.1c-9.4 0-17 7.6-17 17s7.6 17 17 17 17-7.6 17-17c-0.1-9.3-7.7-16.9-17-17z"/>
</svg>
